<?xml version="1.0" encoding="utf-8"?>
<!-- Generator: Adobe Illustrator 23.0.6, SVG Export Plug-In . SVG Version: 6.00 Build 0)  -->
<svg version="1.1" id="Layer_3" xmlns="http://www.w3.org/2000/svg" xmlns:xlink="http://www.w3.org/1999/xlink" x="0px" y="0px"
	 viewBox="0 0 300 300" style="enable-background:new 0 0 300 300;" xml:space="preserve">
<style type="text/css">
	.st0{fill:#F39900;}
	.st1{fill:#848587;}
</style>
<polygon class="st0" points="5.97,240.02 5.97,247.82 24.7,247.82 24.7,295.03 33,295.03 33,247.82 51.69,247.82 51.69,240.02 "/>
<path class="st0" d="M94.97,52.1c-13.96,14.61-21.09,32.34-21.1,53.18c0,21.4,7.15,39.34,21.44,53.81
	c14.21,14.56,31.8,21.84,52.77,21.84c20.89,0,38.52-7.28,52.9-21.84c14.39-14.39,21.58-32.15,21.58-53.29
	c0-22.18-7.45-40.42-22.35-54.72c-14.74-14.22-31.76-21.37-51.05-21.44V1.31c26.01,0,49.27,8.97,69.89,26.9
	c22.7,19.84,34.05,45.83,34.05,77.98c0,28.24-10.35,52.5-31.06,72.78c-20.62,20.28-45.4,30.41-74.34,30.41
	c-28.59,0-53.11-10.23-73.56-30.67c-20.54-20.45-30.8-45.01-30.8-73.69c0-28.85,10.41-53.43,31.03-73.53L94.97,52.1z"/>
<polygon class="st0" points="68.93,263.57 94.69,263.57 94.69,240.02 102.99,240.02 102.99,295.04 94.69,295.04 94.69,271.37 
	68.93,271.37 68.93,295.04 60.63,295.04 60.63,240.02 68.93,240.02 "/>
<path class="st0" d="M124.48,265.28h6.69c7.86,0,11.79-3,11.79-9.01c0-5.63-3.83-8.45-11.47-8.45h-7.01V265.28z M138.87,271.59
	l17.03,23.45h-10.16l-15.71-22.52h-5.55v22.52h-8.3v-55.02h13.78c7.27,0,12.52,1.37,15.75,4.1c3.56,3.04,5.35,7.06,5.35,12.04
	c0,3.9-1.12,7.25-3.35,10.05C145.47,269.01,142.52,270.8,138.87,271.59"/>
<path class="st0" d="M166.53,267.38c0,6.08,2.04,11.08,6.13,15c4.06,3.92,8.75,5.88,14.08,5.88c5.77,0,10.64-2,14.61-5.99
	c3.97-4.04,5.95-8.96,5.95-14.75c0-5.87-1.96-10.78-5.88-14.75c-3.9-3.99-8.72-5.99-14.47-5.99c-5.73,0-10.56,2-14.5,5.99
	C168.5,256.72,166.53,261.59,166.53,267.38 M158.15,267.28c0-7.74,2.84-14.39,8.52-19.95c5.65-5.56,12.45-8.34,20.38-8.34
	c7.84,0,14.56,2.8,20.17,8.41c5.63,5.61,8.44,12.34,8.44,20.2c0,7.91-2.83,14.62-8.48,20.13c-5.68,5.54-12.53,8.3-20.56,8.3
	c-7.1,0-13.48-2.46-19.14-7.38C161.27,283.22,158.15,276.09,158.15,267.28"/>
<polygon class="st0" points="224.08,295.04 232.38,295.04 232.38,256.52 272.51,298.38 272.51,240.02 264.2,240.02 264.2,278.25 
	224.08,236.28 "/>
<path class="st1" d="M74.36,31.49c20.77-20.1,45.6-30.16,74.8-30.19v28.33c-21.35,0-39.11,7.28-53.58,21.83
	c-0.2,0.21-0.28,0.42-0.61,0.63L74.36,31.49z"/>
<path class="st0" d="M221.84,11.69c0-1.11,0.28-2.16,0.83-3.13s1.32-1.74,2.3-2.3c0.97-0.56,2.02-0.84,3.15-0.84
	c1.11,0,2.16,0.28,3.13,0.83s1.74,1.32,2.3,2.3c0.56,0.97,0.84,2.02,0.84,3.15c0,1.1-0.27,2.13-0.81,3.09
	c-0.54,0.96-1.3,1.73-2.27,2.31c-0.97,0.58-2.04,0.87-3.2,0.87c-1.15,0-2.21-0.29-3.19-0.86c-0.97-0.58-1.73-1.35-2.28-2.31
	C222.11,13.82,221.84,12.79,221.84,11.69z M222.71,11.69c0,0.96,0.24,1.86,0.73,2.7c0.48,0.84,1.15,1.5,1.98,1.98
	c0.84,0.48,1.74,0.72,2.69,0.72c0.97,0,1.87-0.24,2.7-0.73c0.83-0.48,1.49-1.14,1.97-1.97s0.73-1.73,0.73-2.71
	c0-0.97-0.24-1.87-0.73-2.7c-0.48-0.83-1.14-1.49-1.97-1.97c-0.83-0.49-1.73-0.73-2.71-0.73c-0.97,0-1.87,0.24-2.7,0.73
	c-0.83,0.48-1.49,1.14-1.97,1.97C222.96,9.81,222.71,10.71,222.71,11.69z M230.66,10.17c0,0.45-0.12,0.84-0.36,1.18
	s-0.57,0.6-1,0.76l1.99,3.3h-1.4l-1.73-2.96h-1.13v2.96h-1.24V7.97h2.18c0.92,0,1.6,0.18,2.03,0.54
	C230.45,8.88,230.66,9.43,230.66,10.17z M227.04,11.43h0.9c0.45,0,0.8-0.12,1.07-0.35c0.27-0.23,0.41-0.52,0.41-0.88
	c0-0.42-0.12-0.72-0.36-0.9s-0.62-0.27-1.13-0.27h-0.88V11.43z"/>
<path class="st0" d="M280.61,246.06c0-1.11,0.28-2.16,0.83-3.13s1.32-1.74,2.3-2.3c0.97-0.56,2.02-0.84,3.15-0.84
	c1.11,0,2.16,0.28,3.13,0.83s1.74,1.32,2.3,2.3c0.56,0.97,0.84,2.02,0.84,3.15c0,1.1-0.27,2.13-0.81,3.09
	c-0.54,0.96-1.3,1.73-2.27,2.31c-0.97,0.58-2.04,0.87-3.2,0.87c-1.15,0-2.21-0.29-3.19-0.86c-0.97-0.58-1.73-1.35-2.28-2.31
	C280.88,248.19,280.61,247.16,280.61,246.06z M281.49,246.06c0,0.96,0.24,1.86,0.73,2.7c0.48,0.84,1.15,1.5,1.98,1.98
	c0.84,0.48,1.74,0.72,2.69,0.72c0.97,0,1.87-0.24,2.7-0.73c0.83-0.48,1.49-1.14,1.97-1.97s0.73-1.73,0.73-2.71
	c0-0.97-0.24-1.87-0.73-2.7c-0.48-0.83-1.14-1.49-1.97-1.97c-0.83-0.49-1.73-0.73-2.71-0.73c-0.97,0-1.87,0.24-2.7,0.73
	c-0.83,0.48-1.49,1.14-1.97,1.97C281.73,244.18,281.49,245.08,281.49,246.06z M289.43,244.54c0,0.45-0.12,0.84-0.36,1.18
	s-0.57,0.6-1,0.76l1.99,3.3h-1.4l-1.73-2.96h-1.13v2.96h-1.24v-7.44h2.18c0.92,0,1.6,0.18,2.03,0.54
	C289.22,243.25,289.43,243.8,289.43,244.54z M285.81,245.8h0.9c0.45,0,0.8-0.12,1.07-0.35c0.27-0.23,0.41-0.52,0.41-0.88
	c0-0.42-0.12-0.72-0.36-0.9s-0.62-0.27-1.13-0.27h-0.88V245.8z"/>
</svg>
