<?xml version="1.0" encoding="utf-8"?>
<!-- Generator: Adobe Illustrator 24.1.0, SVG Export Plug-In . SVG Version: 6.00 Build 0)  -->
<svg version="1.1"  xmlns="http://www.w3.org/2000/svg" xmlns:xlink="http://www.w3.org/1999/xlink" x="0px"
     y="0px"
     viewBox="0 0 300 300" style="enable-background:new 0 0' 300 300;" xml:space="preserve">
    <path fill="#F39900" d="M116.52,117.58c-8.5,8.89-12.84,19.69-12.84,32.38c0,13.03,4.35,23.95,13.06,32.76
		c8.65,8.86,19.36,13.29,32.12,13.29c12.71,0,23.45-4.43,32.2-13.29c8.76-8.76,13.13-19.57,13.13-32.44
		c0-13.51-4.53-24.61-13.61-33.31c-8.98-8.66-19.33-13.01-31.08-13.06V86.66c15.83,0,30,5.46,42.55,16.38
		c13.82,12.08,20.73,27.9,20.73,47.47c0,17.19-6.3,31.96-18.91,44.31c-12.55,12.34-27.64,18.51-45.26,18.51
		c-17.41,0-32.33-6.23-44.78-18.67c-12.5-12.45-18.75-27.4-18.75-44.86c0-17.57,6.34-32.53,18.89-44.76L116.52,117.58z"/>
  <path fill="#848587" d="M103.97,105.04c12.64-12.24,27.76-18.36,45.54-18.38v17.25c-13,0-23.81,4.43-32.62,13.29
		c-0.12,0.13-0.17,0.25-0.37,0.38L103.97,105.04z"/>
</svg>
